<?xml version="1.0" encoding="utf-8"?>
<!-- Generator: Adobe Illustrator 22.0.0, SVG Export Plug-In . SVG Version: 6.00 Build 0)  -->
<svg version="1.1" id="Laag_1" xmlns="http://www.w3.org/2000/svg" xmlns:xlink="http://www.w3.org/1999/xlink" x="0px" y="0px"
	 viewBox="0 0 73 73" style="enable-background:new 0 0 73 73;" xml:space="preserve">
<style type="text/css">
	.st0{fill:#DE4C36;}
</style>
<path class="st0" d="M69.7,32.9L39.1,2.3c-1.8-1.8-4.6-1.8-6.4,0l-6.3,6.3l8.1,8.1c1.9-0.6,4-0.2,5.5,1.3c1.5,1.5,1.9,3.7,1.3,5.5
	l7.8,7.8c1.9-0.6,4-0.2,5.5,1.3c2.1,2.1,2.1,5.5,0,7.6c-2.1,2.1-5.5,2.1-7.6,0c-1.6-1.6-2-3.9-1.2-5.8l-7.2-7.2l0,19
	c0.5,0.3,1,0.6,1.4,1c2.1,2.1,2.1,5.5,0,7.6c-2.1,2.1-5.5,2.1-7.6,0c-2.1-2.1-2.1-5.5,0-7.6c0.5-0.5,1.1-0.9,1.8-1.2V26.8
	c-0.7-0.3-1.3-0.7-1.8-1.2c-1.6-1.6-2-3.9-1.2-5.9l-7.9-7.9l-21,21c-1.8,1.8-1.8,4.6,0,6.4l30.6,30.6c1.8,1.8,4.6,1.8,6.4,0
	l30.4-30.4C71.4,37.5,71.4,34.6,69.7,32.9"/>
</svg>
