<?xml version="1.0" encoding="utf-8"?>
<!-- Generator: Adobe Illustrator 22.0.0, SVG Export Plug-In . SVG Version: 6.00 Build 0)  -->
<svg version="1.1" id="Laag_1" xmlns="http://www.w3.org/2000/svg" xmlns:xlink="http://www.w3.org/1999/xlink" x="0px" y="0px"
	 viewBox="0 0 82.4 99.2" style="enable-background:new 0 0 82.4 99.2;" xml:space="preserve">
<style type="text/css">
	.st0{fill:#FBA919;}
	.st1{fill:#E78724;}
	.st2{fill:#FDC168;}
	.st3{fill:#FFFFFF;}
	.st4{fill:#C9C9C9;}
	.st5{fill:#463014;}
</style>
<g>
	<path class="st0" d="M10.8,22.9c0,0,1.6,6.2,1.8,8.3c0.2,2.1-4.2,6.7-4.2,9c0,2.3,0.9,6.5,6,8.5c5.1,2.1,5.8,7.4,5.8,10.6
		c0,3.2-1.8,9.5-1.8,9.5s-1.2,15.5,5.1,18.2c6.2,2.8,4.8,2.8,6.2,2.8c1.4,0,11.5,4.2,17.5,2.5c6-1.6,7.6-3.5,7.6-3.5s6,0.5,7.9-4.8
		c1.8-5.3,3-16.4,2.3-21.5c-0.7-5.1-1.6-11.8,2.5-14.1c4.2-2.3,8.5-5.1,7.9-7.4c-0.7-2.3-4.4-5.5-4.4-5.5s-0.9-5.8-0.2-7.2
		c0.7-1.4,4.8-4.8,2.5-7.4c-2.3-2.5-6.5-2.5-6.5-2.5L61.6,19c0,0-9-8.1-20.8-7.6C29.1,11.9,21.7,19,21.7,19s-3.9-1.4-7.4,0
		C10.8,20.4,10.1,19,10.8,22.9z"/>
	<path class="st1" d="M31.9,57.3c0,0-4.6,7-7.9,12c-0.5,0.8,3.4,0.8,3.4,0.8L31.9,57.3L31.9,57.3z M34.1,42.8c0,0-1.4,3.4-2.1,5.3
		c-0.8,2-3.9,3-3.9,3s1.6-1.7,1.6-6c0-1.8,2.3-2.5,2.3-2.5L34.1,42.8L34.1,42.8z"/>
	<path class="st1" d="M32.7,44.8c0,0-2.8,3.4-8.1,1.5c-5.2-1.9-5.8-8.6-5.8-10.5s9.9,1.9,11.3,2.7C31.5,39.3,34.1,42.5,32.7,44.8
		L32.7,44.8z M12.9,8.8c0,0,4.8-0.9,8.1,1.6c3.2,2.6,4.2,4.6,4.2,4.6l-5.4,4.3c0,0-2.6-1.2-3.4-4.7C15.5,11.1,16,9.5,12.9,8.8
		L12.9,8.8z"/>
	<path class="st1" d="M31.3,35.1c-2.1-3-5.5-4.2-8.3-4.5c-4.7-0.4-6.9,1.3-6.9,1.3s7.7,0.3,9.9,3.2c4.1,5.4,10.1,5.8,11.1,4.6
		c-1.1,0.1-2.3-0.5-3.6-1.7C32.6,37.3,32,36,31.3,35.1z M18.4,45.5c0,0-8.5-2.9-6.9-5.9c1.6-3,0.3-4.6,0.3-4.6s-4.7,3.5-3.5,7.3
		c0.7,2.3,2,4,8.8,7.2c3.3,6.1,0.7,17.1,0.8,17.1c0.3,0.1,4.6-2.1,4.3-12.4C22.2,51.1,21.9,46.8,18.4,45.5L18.4,45.5z M29.5,14.1
		c-3.6,1.8-8.4,4.3-8.4,4.3l1.9,1c-0.2,0.3-0.3,0.5-0.3,0.5l2,0.9c0,0,4.8,3.5,7.8,5.7c-1-3-3.9-7.8-3.9-7.8S27.8,16.5,29.5,14.1
		L29.5,14.1z M41.3,87.9c-10.9,0-14.7-5.6-14.7-5.6l1.7,4.2c0.6,1.8,7.5,7.4,12.9,7.4"/>
	<path class="st1" d="M27.9,78.6c0,0,1,6.2,5,6.2c3.4,0,4.4-5.2,4.4-6.3L27.9,78.6L27.9,78.6z M21.2,69.3c0.4-1,1.6-5,2-8.6
		c0.5-4.3,0.3-10.7,0.3-10.7s-1.1,4.2-2,4.8c-0.9,0.7-2.7,5.2-2.7,5.2s-0.9,6.8-1.4,9.1C18.6,69.4,19.7,68.7,21.2,69.3L21.2,69.3z
		 M11.4,42.3c0,0,2.3-0.8,3-5.8c0.7-5-0.8-9.3-0.8-9.3s0.1,6.9-0.7,8.2c-0.8,1.3-1.5,1.7-2.4,3.5C9.5,40.7,10.9,41.8,11.4,42.3
		L11.4,42.3z"/>
	<path class="st2" d="M14.2,10l-0.5-0.3C12.3,9.8,14.2,10,14.2,10z"/>
	<path class="st0" d="M31.4,12.6c0,0-2.2-0.4-3.2-2c-1.1-1.6-4.1-4.8-9-4.9c-4.9,0-9.7,1.3-9.7,1.3l4.2,2.7c0.4,0,1.2,0,2.5,0
		c5.3,0.2,6.1,5.4,6.1,5.4l18.6-2.6"/>
	<path class="st3" d="M33.2,41.4c0,0-2.5,2.5-6.4,1.7c-3.9-0.8-6.2-2.5-6.4-5.5c-0.2-3,0.8-4.1,0.8-4.1s4.3,1.3,6.4,3.1
		C29.7,38.4,31.2,41.3,33.2,41.4L33.2,41.4z"/>
	<path class="st4" d="M30.1,40.5c0,0-2.2,1-4.6,0.2c-3.2-1.1-3.4-4.4-3.4-4.4s-2,5.7,3.5,6.8c4.4,0.9,7-1.7,7-1.7L30.1,40.5
		L30.1,40.5z"/>
	<path class="st5" d="M31.7,11.4c-0.2-4.9,3.8-8.8,5.2-9c0.1,0.8-0.1,4.1,1.3,5.1C38.6,4.8,40,1.9,45.4,0c-1.2,3.1-0.2,5.7,0.3,6.9
		c3.7-3.4,6.2-2.8,6.2-2.8s-2.6,4.4-1.6,7.4C42.9,10.8,31.7,12.2,31.7,11.4L31.7,11.4z M15.9,18.9c-1.8-1.5-0.5-2.8-0.6-4.5
		c-0.1-0.9-0.1-1.7-0.4-2.2c-1.6-2.6-5.5-3.4-5.5-3.4L7.5,8.5l1.2-1.4c0.2-0.2,5.1-4.9,12.7-2.4c5.3,1.7,9.3,7.5,9.4,7.8l-2.7,1.3
		c0,0-3.1-5.5-7.7-7c-3.7-1.2-7.1-0.1-8.6,0.7c1.5,0.6,3.6,1.7,4.8,3.7c0.6,0.9,0.7,2.1,0.8,3.2c0.1,1.5,0.2,2.9,1.3,3.8L15.9,18.9z
		 M11.1,40.4c0,0,2.2-2.8,2.9-8.2c0.3-2.1-0.2-6.3-0.9-7.9c0.1,4-0.9,7.9-0.9,7.9S11.5,39.6,11.1,40.4L11.1,40.4z"/>
	<path class="st5" d="M22.9,16.1c0,0-0.7-3.1-2.7-4.7c-2.8-2.2-6.2-1-6.3-1l-0.5-1.5c0.2-0.1,4.1-1.3,7.7,1.2
		c3.6,2.5,4.1,4.9,4.1,5.1L22.9,16.1L22.9,16.1z M18.2,38.4c0,0-1.2-1.7-1-3.5c0.1-0.9,0.5-1.8,1.3-2.2c1.4-0.6,2,1,2,1
		S18.5,34.2,18.2,38.4L18.2,38.4z"/>
	<path class="st5" d="M31.1,41c0,0.1,0.1,0.1,0.1,0.1s-3.7,2.7-7.4,0c-2-1.5-1.8-5.2-1.2-6.8c1.6,0.4,3,1,4.1,1.8
		c-1.4-1.3-2.7-2.2-2.7-2.2l-1.6-0.5l-3.2-1.1c0,0.2-1.2,5.7,2.1,9.3c1.5,1.6,8.4,5.3,11.7-1L31.1,41L31.1,41z"/>
	<path class="st5" d="M30.7,41.4c2.1,3.1,7.3,1.3,7.2-2c0,0-3.5,1.9-6.5-1.6c-1.8-2.1-7.5-7.7-15.3-5.9C21.4,33.1,28.5,38,30.7,41.4
		L30.7,41.4z"/>
	<path class="st5" d="M15.3,50.2c0.5,0.3,2.2,2.1,2.2,4.8c0,1.4-0.1,8.2-0.8,12.3c1,0.7,1.7,0.8,2.7,1.5C20,64,20.3,57,20.1,54.2
		c-0.2-3.2-1.9-5.4-3.5-6.3c-0.5-0.3-1-0.6-1.6-0.9c-2.7-1.5-5.6-3-5.6-5.6c0-2,0.8-2.7,1.6-3.4l0.1-0.1c0.6-0.5,1.2-1,1.6-1.8
		c1-2.3,1.2-8.1,0-9.6c-0.6-0.7-2.2-3.2-1.7-4.9c0.2-0.6,0.6-1.1,1.2-1.4c0.7-0.4,1.6-0.5,2.8-0.5c2.3,0,4.8,0.7,6.1,1.1
		c4.6,1.5,10.2,5.7,11.8,7c0,0,0.1,0.1,0.1,0.1l1,0.7l-0.6-1.1c0-0.1-4.1-6.7-11.3-9.2c-1.4-0.5-4.2-1.3-6.9-1.3
		c-1.6,0-3,0.3-4.1,0.8c-1.3,0.7-2.2,1.8-2.6,3.1c-0.9,3.4,2.1,7.1,2.2,7.2c0.3,0.6,0.5,5.1-0.3,6.9c-0.1,0.2-0.4,0.5-0.8,0.8
		c-0.1,0.1-0.3,0.2-0.4,0.3c-1.1,0.9-2.8,2.1-2.8,5.1c0,4.1,4.1,6.3,7.5,8.1C14.3,49.7,14.8,50,15.3,50.2z"/>
	<path class="st5" d="M15.9,18.9c-1.8-1.5-0.5-2.8-0.6-4.5c-0.1-0.9-0.1-1.7-0.4-2.2c-1.6-2.6-5.5-3.4-5.5-3.4L7.5,8.5l1.2-1.4
		c0.2-0.2,5.1-4.9,12.7-2.4c5.3,1.7,9.3,7.5,9.4,7.8l-2.7,1.3c0,0-3.1-5.5-7.7-7c-3.7-1.2-7.1-0.1-8.6,0.7c1.5,0.6,3.6,1.7,4.8,3.7
		c0.6,0.9,0.7,2.1,0.8,3.2c0.1,1.5,0.2,2.9,1.3,3.8L15.9,18.9z"/>
	<path class="st5" d="M15.8,19.2l-0.1-0.1c-1.3-1.1-1.1-2.2-0.9-3.2c0.1-0.5,0.2-1,0.2-1.5c-0.1-0.9-0.1-1.7-0.4-2.1
		c-1.6-2.5-5.3-3.2-5.4-3.3L7,8.6l1.5-1.8c0,0,3.2-3.2,8.5-3.2c1.5,0,3,0.2,4.4,0.7C27,6.2,31,12.2,31,12.3l0.2,0.3L28,14l-0.1-0.2
		c-0.3-0.6-3.3-5.5-7.6-6.9c-1-0.3-2.1-0.5-3.3-0.5c-2,0-3.7,0.6-4.6,0.9c1.5,0.7,3.2,1.8,4.4,3.5c0.6,1,0.7,2.1,0.8,3.3
		c0.1,1.4,0.2,2.7,1.2,3.6l0.4,0.3L15.8,19.2L15.8,19.2z"/>
	<path class="st5" d="M22.9,16.1c0,0-0.7-3.1-2.7-4.7c-2.8-2.2-6.2-1-6.3-1l-0.5-1.5c0.2-0.1,4.1-1.3,7.7,1.2
		c3.6,2.5,4.1,4.9,4.1,5.1L22.9,16.1L22.9,16.1z"/>
	<path class="st5" d="M22.7,16.5l-0.1-0.3c0,0-0.7-3.1-2.6-4.6c-1.1-0.9-2.4-1.3-3.9-1.3c-1.2,0-2,0.3-2.1,0.3l-0.3,0.1l-0.7-2
		l0.3-0.1c0.1,0,1.2-0.4,2.6-0.4c1.9,0,3.8,0.6,5.3,1.6c3.7,2.6,4.2,5,4.2,5.3l0,0.2L22.7,16.5L22.7,16.5z M16.2,9.8
		c1.6,0,3.1,0.5,4.2,1.4c1.7,1.3,2.5,3.7,2.7,4.6L25,15c-0.2-0.6-0.9-2.6-3.9-4.7c-1.5-1-3.1-1.5-5-1.5c-1,0-1.8,0.2-2.2,0.3l0.3,1
		C14.5,9.9,15.3,9.8,16.2,9.8z M32.8,83.2c-0.8,0-1.6-0.3-2.2-0.8c-0.4-0.4-1.9-1.7-2.5-3.3c-0.2-0.6-0.2-1.1,0.2-1.5
		c0.2-0.2,0.7-0.5,1.7-0.5l0.7,0c0.9,0,2.3,0,3.5,0h1.2c0.8,0,1.3,0.2,1.6,0.5c0.4,0.4,0.3,0.9,0.2,1.2c-0.2,0.5-1,2.1-2.4,3.6
		C34.3,83,33.6,83.2,32.8,83.2L32.8,83.2z M33.6,41.6l-2.9-0.2c0,0,0.7,1.3,1.2,3c0.5,1.9-0.5,4.7-0.5,4.7S35.3,44.7,33.6,41.6z
		 M30,90.8C19.8,90,16.2,80.4,16.2,78.4l2.7,0l-1.3,0h1.3c0,0.9,2.7,9.1,11.3,9.8L30,90.8L30,90.8z"/>
	<path class="st3" d="M27.1,73.5c-0.2-0.9-0.2-1.8,0-2.7c-0.8-0.6-2.2-0.8-3.2-1.1c-0.9-0.5-5.2,0.6-8.4-3.3c-4-4.8-3.1-7.7-3.1-7.7
		c-1,1.1-2,0.7-3.6,6c-1.6,5.3,0.7,9,5,12.7c2,1.7,4.9,2.5,7.3,2.7c-0.8-0.8,1.4-0.9,2.9-1.5c-0.1-1.2,0.1-2.4,1-3.4
		c0.6-0.6,1.3-0.9,2-1.2c0-0.1,0.1-0.2,0.1-0.3C27.2,73.7,27.2,73.6,27.1,73.5z"/>
	<path class="st4" d="M24,78.6c-0.1-0.3-0.2-0.5-0.2-0.8c-0.1-0.3-0.4-1.1,0-0.2c-0.1-0.2-0.2-0.5-0.2-0.7
		c-6.9,0-12.9-4.7-11.7-14.7C11,61,9.7,64.7,9.7,64.7s-3.5,10,5.5,13.9c3,1.3,5.6,2.2,6.2,1.8c1.3,0.3,2.5-0.6,2.9-1.2
		C24.2,79,24.1,78.8,24,78.6L24,78.6z"/>
	<path class="st5" d="M27,72.1c0-0.8,0.2-1.7,0.6-2.5c0-0.1,0.1-0.1,0.1-0.2c-2.7,0-5.7-0.3-8.3-1.3c-2.9-1.1-6.4-5.1-7.1-9.7
		c0,0-5.4,4.2-3.8,13.1C10,79.9,17,82.6,25,83.1c0-0.1-0.9-1.9-0.6-3.1c-4.5,0.3-9.6-1.4-12-5.4c-2.2-3.7-1.6-10-0.7-10.9
		C13.9,70.8,21.9,72.2,27,72.1z"/>
	<path class="st5" d="M27.8,67c-1.4,4.2-4.4,7.6-4.4,7.6s4-0.2,4.3-0.9c0.2-0.5,3.6-8.7,5-18.2C31.5,57.6,28,66.7,27.8,67L27.8,67z"
		/>
	<path class="st1" d="M50.7,57.3c0,0,4.6,7,7.9,12c0.5,0.8-3.4,0.8-3.4,0.8L50.7,57.3L50.7,57.3z M48.5,42.8c0,0,1.4,3.4,2.1,5.3
		c0.8,2,3.9,3,3.9,3S53,49.3,53,45c0-1.8-2.3-2.5-2.3-2.5L48.5,42.8L48.5,42.8z"/>
	<path class="st1" d="M49.9,44.8c0,0,2.8,3.4,8.1,1.5c5.2-1.9,5.8-8.6,5.8-10.5s-9.9,1.9-11.3,2.7C51.1,39.3,48.6,42.5,49.9,44.8
		L49.9,44.8z M69.7,8.8c0,0-4.8-0.9-8.1,1.6C58.4,13,57.5,15,57.5,15l5.4,4.3c0,0,2.6-1.2,3.4-4.7C67.2,11.1,66.6,9.5,69.7,8.8
		L69.7,8.8z"/>
	<path class="st1" d="M51.3,35.1c2.1-3,5.5-4.2,8.3-4.5c4.7-0.4,6.9,1.3,6.9,1.3s-7.7,0.3-9.9,3.2c-4.1,5.4-10.1,5.8-11.1,4.6
		c1.1,0.1,2.3-0.5,3.6-1.7C50,37.3,50.7,36,51.3,35.1z M64.2,45.5c0,0,8.5-2.9,6.9-5.9c-1.6-3-0.3-4.6-0.3-4.6s4.7,3.5,3.5,7.3
		c-0.7,2.3-2,4-8.8,7.2c-3.3,6.1-0.7,17.1-0.8,17.1c-0.3,0.1-4.6-2.1-4.3-12.4C60.4,51.1,60.7,46.8,64.2,45.5z M53.1,14.1
		c3.6,1.8,8.4,4.3,8.4,4.3l-1.9,1c0.2,0.3,0.3,0.5,0.3,0.5l-2,0.9c0,0-4.8,3.5-7.8,5.7c1-3,3.9-7.8,3.9-7.8S54.9,16.5,53.1,14.1z
		 M41.3,87.9c10.9,0,14.7-5.6,14.7-5.6l-1.7,4.2c-0.6,1.8-7.5,7.4-12.9,7.4"/>
	<path class="st1" d="M54.7,78.6c0,0-1,6.2-5,6.2c-3.4,0-4.4-5.2-4.4-6.3L54.7,78.6z M61.4,69.3c-0.4-1-1.6-5-2-8.6
		C58.9,56.3,59.1,50,59.1,50s1.1,4.2,2,4.8c0.9,0.7,2.7,5.2,2.7,5.2s0.9,6.8,1.4,9.1C64,69.4,62.9,68.7,61.4,69.3L61.4,69.3z
		 M71.2,42.3c0,0-2.3-0.8-3-5.8c-0.7-5,0.8-9.3,0.8-9.3s-0.1,6.9,0.7,8.2c0.8,1.3,1.5,1.7,2.4,3.5C73.1,40.7,71.7,41.8,71.2,42.3z"
		/>
	<path class="st2" d="M68.5,10l0.5-0.3C70.3,9.8,68.5,10,68.5,10z"/>
	<path class="st0" d="M51.3,12.6c0,0,2.2-0.4,3.2-2c1.1-1.6,4.1-4.8,9-4.9c4.9,0,9.7,1.3,9.7,1.3l-4.2,2.7c-0.4,0-1.2,0-2.5,0
		c-5.3,0.2-6.1,5.4-6.1,5.4l-18.6-2.6"/>
	<path class="st3" d="M49.5,41.4c0,0,2.5,2.5,6.4,1.7c3.9-0.8,6.2-2.5,6.4-5.5c0.2-3-0.8-4.1-0.8-4.1s-4.3,1.3-6.4,3.1
		C53,38.4,51.4,41.3,49.5,41.4z"/>
	<path class="st4" d="M52.5,40.5c0,0,2.2,1,4.6,0.2c3.2-1.1,3.4-4.4,3.4-4.4s2,5.7-3.5,6.8c-4.4,0.9-7-1.7-7-1.7L52.5,40.5
		L52.5,40.5z"/>
	<path class="st5" d="M66.7,18.9c1.8-1.5,0.5-2.8,0.6-4.5c0.1-0.9,0.1-1.7,0.4-2.2c1.6-2.6,5.5-3.4,5.5-3.4l1.8-0.4l-1.2-1.4
		c-0.2-0.2-5.1-4.9-12.7-2.4c-5.3,1.7-9.3,7.5-9.4,7.8l2.7,1.3c0,0,3.1-5.5,7.7-7c3.7-1.2,7.1-0.1,8.6,0.7C69.2,8,67.2,9.1,65.9,11
		c-0.6,0.9-0.7,2.1-0.8,3.2c-0.1,1.5-0.2,2.9-1.3,3.8L66.7,18.9L66.7,18.9z M71.5,40.4c0,0-2.2-2.8-2.9-8.2
		c-0.3-2.1,0.2-6.3,0.9-7.9c-0.1,4,0.9,7.9,0.9,7.9S71.1,39.6,71.5,40.4z"/>
	<path class="st5" d="M59.7,16.1c0,0,0.7-3.1,2.7-4.7c2.8-2.2,6.2-1,6.3-1l0.5-1.5c-0.2-0.1-4.1-1.3-7.7,1.2
		c-3.6,2.5-4.1,4.9-4.1,5.1L59.7,16.1z M64.4,38.4c0,0,1.2-1.7,1-3.5c-0.1-0.9-0.5-1.8-1.3-2.2c-1.4-0.6-2,1-2,1
		S64.1,34.2,64.4,38.4L64.4,38.4z"/>
	<path class="st5" d="M51.6,41c0,0.1-0.1,0.1-0.1,0.1s3.7,2.7,7.4,0c2-1.5,1.8-5.2,1.2-6.8c-1.6,0.4-3,1-4.1,1.8
		c1.4-1.3,2.7-2.2,2.7-2.2l1.6-0.5l3.2-1.1c0,0.2,1.2,5.7-2.1,9.3c-1.5,1.6-8.4,5.3-11.7-1L51.6,41L51.6,41z"/>
	<path class="st5" d="M51.9,41.4c-2.1,3.1-7.3,1.3-7.2-2c0,0,3.5,1.9,6.5-1.6c1.8-2.1,7.5-7.7,15.3-5.9C61.2,33.1,54.1,38,51.9,41.4
		L51.9,41.4z"/>
	<path class="st5" d="M67.3,50.2c-0.5,0.3-2.2,2.1-2.2,4.8c0,1.4,0.1,8.2,0.8,12.3c-1,0.7-1.7,0.8-2.7,1.5
		C62.7,64,62.3,57,62.5,54.2c0.2-3.2,1.9-5.4,3.5-6.3c0.5-0.3,1-0.6,1.6-0.9c2.7-1.5,5.6-3,5.6-5.6c0-2-0.8-2.7-1.6-3.4L71.4,38
		c-0.6-0.5-1.2-1-1.6-1.8c-1-2.3-1.2-8.1,0-9.6c0.6-0.7,2.2-3.2,1.7-4.9c-0.2-0.6-0.6-1.1-1.2-1.4c-0.7-0.4-1.6-0.5-2.8-0.5
		c-2.3,0-4.8,0.7-6.1,1.1c-4.6,1.5-10.2,5.7-11.8,7c0,0-0.1,0.1-0.1,0.1l-1,0.7l0.6-1.1c0-0.1,4.1-6.7,11.3-9.2
		c1.4-0.5,4.2-1.3,6.9-1.3c1.6,0,3,0.3,4.1,0.8c1.3,0.7,2.2,1.8,2.6,3.1c0.9,3.4-2.1,7.1-2.2,7.2c-0.3,0.6-0.5,5.1,0.3,6.9
		c0.1,0.2,0.4,0.5,0.8,0.8c0.1,0.1,0.3,0.2,0.4,0.3c1.1,0.9,2.8,2.1,2.8,5.1c0,4.1-4.1,6.3-7.4,8.1C68.3,49.7,67.8,50,67.3,50.2
		L67.3,50.2z"/>
	<path class="st5" d="M62.4,18.4c-0.7-1.1-2.3-3.3-6.2-5.1c-4.3-2.1-9.3-3.2-14.9-3.2v0h0v0c-5.5,0-10.5,1.1-14.9,3.2
		c-3.9,1.9-5.6,4-6.2,5.1l-0.3,0.4l3.3,0.7l0.1-0.1l0.1-0.1c0.1-0.2,0.5-1.4,4.2-3.2c4-1.9,8.6-2.9,13.7-2.9c5.1,0,9.7,1,13.7,2.9
		c3.7,1.8,4.1,3,4.2,3.2l0.1,0.1l0.1,0.1l3.3-0.7L62.4,18.4L62.4,18.4z"/>
	<path class="st5" d="M66.7,18.9c1.8-1.5,0.5-2.8,0.6-4.5c0.1-0.9,0.1-1.7,0.4-2.2c1.6-2.6,5.5-3.4,5.5-3.4l1.8-0.4l-1.2-1.4
		c-0.2-0.2-5.1-4.9-12.7-2.4c-5.3,1.7-9.3,7.5-9.4,7.8l2.7,1.3c0,0,3.1-5.5,7.7-7c3.7-1.2,7.1-0.1,8.6,0.7C69.2,8,67.2,9.1,65.9,11
		c-0.6,0.9-0.7,2.1-0.8,3.2c-0.1,1.5-0.2,2.9-1.3,3.8L66.7,18.9L66.7,18.9z"/>
	<path class="st5" d="M63.3,18.1l0.4-0.3c1-0.8,1.1-2.2,1.2-3.6c0.1-1.1,0.2-2.3,0.8-3.3c1.1-1.8,2.9-2.9,4.4-3.5
		c-0.9-0.4-2.5-0.9-4.6-0.9c-1.1,0-2.2,0.2-3.3,0.5c-4.2,1.4-7.2,6.3-7.6,6.9L54.6,14l-3.2-1.5l0.2-0.3c0-0.1,4-6.1,9.6-7.9
		c1.5-0.5,3-0.7,4.4-0.7c5.3,0,8.5,3.2,8.5,3.2l1.5,1.8l-2.3,0.4c0,0-3.8,0.8-5.4,3.3c-0.3,0.4-0.3,1.2-0.4,2.1c0,0.5,0.1,1,0.2,1.5
		c0.2,1,0.5,2.1-0.9,3.2l-0.1,0.1L63.3,18.1L63.3,18.1z"/>
	<path class="st5" d="M59.7,16.1c0,0,0.7-3.1,2.7-4.7c2.8-2.2,6.2-1,6.3-1l0.5-1.5c-0.2-0.1-4.1-1.3-7.7,1.2
		c-3.6,2.5-4.1,4.9-4.1,5.1L59.7,16.1z"/>
	<path class="st5" d="M57.1,15.4l0-0.2c0-0.3,0.5-2.7,4.2-5.3c1.5-1.1,3.4-1.6,5.3-1.6c1.5,0,2.5,0.3,2.6,0.4l0.3,0.1l-0.7,2
		l-0.3-0.1c-0.1,0-1-0.3-2.1-0.3c-1.5,0-2.8,0.4-3.9,1.3c-1.9,1.5-2.6,4.5-2.6,4.6l-0.1,0.3L57.1,15.4L57.1,15.4z M68.5,10l0.3-1
		c-0.4-0.1-1.2-0.3-2.2-0.3c-1.9,0-3.5,0.5-5,1.5c-3.1,2.1-3.8,4.1-3.9,4.7l1.8,0.7c0.2-0.9,1-3.2,2.7-4.6c1.2-0.9,2.6-1.4,4.2-1.4
		C67.3,9.8,68.1,9.9,68.5,10L68.5,10z M47.8,82.4c-1.4-1.5-2.2-3.1-2.4-3.6c-0.1-0.3-0.2-0.8,0.2-1.2c0.3-0.3,0.9-0.5,1.6-0.5h1.2
		c1.2,0,2.7,0,3.5,0l0.7,0c1,0,1.5,0.3,1.7,0.5c0.3,0.4,0.4,0.8,0.2,1.5c-0.6,1.6-2.1,3-2.5,3.3c-0.6,0.5-1.4,0.8-2.2,0.8
		C49,83.2,48.3,83,47.8,82.4L47.8,82.4z M49,41.6l2.9-0.2c0,0-0.7,1.3-1.2,3c-0.5,1.9,0.5,4.7,0.5,4.7S47.4,44.7,49,41.6z"/>
	<path class="st1" d="M41.3,31.3c-1.8,0-4.2-0.1-6-1.3c0,0,2.3,4.1,6,4.1l0-0.5l0,0.5c3.7,0,6-4.1,6-4.1
		C45.5,31.3,43.1,31.3,41.3,31.3z"/>
	<path class="st5" d="M46.3,31.3c-1.8,1.1-3.5,1.5-5,1.5c-1.6,0-3.2-0.4-5-1.5c0,0,2.7,3.3,5,3.3v0c0,0,0,0,0,0c0,0,0,0,0,0v0
		C43.7,34.6,46.3,31.3,46.3,31.3z M52.6,90.8l-0.2-2.7c8.6-0.7,11.3-8.9,11.3-9.8h2.7C66.4,80.4,62.8,90,52.6,90.8z"/>
	<path class="st3" d="M55.5,73.5c0.2-0.9,0.2-1.8,0-2.7c0.8-0.6,2.2-0.8,3.2-1.1c0.9-0.5,5.2,0.6,8.4-3.3c4-4.8,3.1-7.7,3.1-7.7
		c1,1.1,2,0.7,3.6,6c1.6,5.3-0.7,9-5,12.7c-2,1.7-4.9,2.5-7.3,2.7c0.8-0.8-1.4-0.9-2.9-1.5c0.1-1.2-0.1-2.4-1-3.4
		c-0.6-0.6-1.3-0.9-2-1.2c0-0.1-0.1-0.2-0.1-0.3C55.4,73.7,55.5,73.6,55.5,73.5L55.5,73.5z"/>
	<path class="st4" d="M58.6,78.6c0.1-0.3,0.2-0.5,0.2-0.8c0.1-0.3,0.4-1.1,0-0.2c0.1-0.2,0.2-0.5,0.2-0.7c6.9,0,12.9-4.7,11.7-14.7
		c0.9-1.2,2.2,2.4,2.2,2.4s3.5,10-5.5,13.9c-3,1.3-5.6,2.2-6.2,1.8c-1.3,0.3-2.5-0.6-2.9-1.2C58.4,79,58.5,78.8,58.6,78.6L58.6,78.6
		z"/>
	<path class="st5" d="M55.6,72.1c0-0.8-0.2-1.7-0.6-2.5c0-0.1-0.1-0.1-0.1-0.2c2.7,0,5.7-0.3,8.3-1.3c2.9-1.1,6.4-5.1,7.1-9.7
		c0,0,5.4,4.2,3.8,13.1c-1.5,8.4-8.5,11.1-16.5,11.5c0-0.1,0.9-1.9,0.6-3.1c4.5,0.3,9.6-1.4,12-5.4c2.2-3.7,1.6-10,0.7-10.9
		C68.7,70.8,60.7,72.2,55.6,72.1L55.6,72.1z"/>
	<path class="st5" d="M58.8,74.2c-1-1-2.7-2.3-6.7-2.3l-10.8,0h0c-3.1,0-10.8,0-10.8,0c-4,0-5.8,1.2-6.7,2.3
		c-1.4,1.5-1.6,3.6-0.6,6.2c2.6,6.9,6.1,14,18.1,14v0c0,0,0,0,0,0c0,0,0,0,0,0v0c12,0,15.6-7.1,18.1-14
		C60.4,77.8,60.2,75.7,58.8,74.2L58.8,74.2z M57,79.9c-1.2,3.5-4.5,11.9-15.6,11.9c-11.2,0-14.4-8.4-15.6-11.9
		C25,78,25,76.5,25.8,75.6c0.5-0.6,1.8-1.3,4.5-1.3l2.9,0c2.1,0,4.8,0,8,0c3.2,0,5.9,0,8,0l2.9,0c2.8,0,4,0.7,4.5,1.3
		C57.6,76.5,57.6,78,57,79.9L57,79.9z"/>
	<path class="st5" d="M54.8,67c1.4,4.2,4.4,7.6,4.4,7.6s-4-0.2-4.3-0.9c-0.2-0.5-3.6-8.7-5-18.2C51.2,57.6,54.6,66.7,54.8,67
		L54.8,67z"/>
</g>
</svg>
