<?xml version="1.0" encoding="utf-8"?>
<!-- Generator: Adobe Illustrator 22.0.0, SVG Export Plug-In . SVG Version: 6.00 Build 0)  -->
<svg version="1.1" id="Laag_1" xmlns="http://www.w3.org/2000/svg" xmlns:xlink="http://www.w3.org/1999/xlink" x="0px" y="0px"
	 viewBox="0 0 129.2 214.5" style="enable-background:new 0 0 129.2 214.5;" xml:space="preserve">
<style type="text/css">
	.st0{fill:#D34A47;}
	.st1{fill:#FFFFFF;}
</style>
<g>
	<path class="st0" d="M81.1,187.7l1.7-28.4l4.7-8c0,0-10.7,4.4-28.6,4.4c-17.9,0-28.5-4.3-28.5-4.3l5.3,8.8l1.9,27.6
		c0,3,9.8,5.4,21.8,5.4C71.3,193,81.1,190.6,81.1,187.7 M75.7,55l3.6-14.1L99.1,20l-5.2-4.4l-21,22.2l-4.2,16.9
		c-3.1-0.1-6.3-0.2-9.4-0.2c-22.1,0-40,2.5-40,5.6c0,3.1,17.9,5.6,40,5.6c22.1,0,40-2.5,40-5.6C99.4,57.9,89.7,55.9,75.7,55"/>
	<path class="st1" d="M73.6,63c0,0-0.8,0.2-3.1,0.2c-2.3,0-3.9,0-4.5-0.6c-0.2-0.2-0.3-0.5-0.3-0.7c0-0.4,0.3-0.6,0.7-0.8l0.3,0.5
		c-0.2,0.1-0.2,0.1-0.2,0.2c0,0.3,2.3,0.5,4.1,0.5c1.8,0,3.9-0.2,3.9-0.5c0-0.1-0.2-0.2-0.4-0.2l0.3-0.5c0.5,0.1,0.9,0.4,0.9,0.9
		C75.4,62.7,74.3,62.9,73.6,63"/>
	<path class="st0" d="M99.1,20.1c0.5-0.6-0.3-2-1.7-3.3c-1.4-1.2-3-1.8-3.5-1.2c-0.5,0.6,0.3,2,1.7,3.3C97,20.1,98.6,20.7,99.1,20.1
		 M80.1,118.3c-0.5-4.5,9.9-11.1,7.2-11.3c-5.7,0.3-8.6,6.7-11.4,13.4c-1.1,2.4-4.7,12.9-7,11.6c-2.4-1.3,3.1-9.9,4.6-15
		c-1.8,1.3-8.2,6.3-9.9,1.6c-2.7,2.3-8.4,3.5-7.7-2.5c-1.4,2.5-4.6,6-8.4,4.6c-5-1.9,2.9-17.9,4.9-17.1c2,0.8-0.4,4.5-1,5.9
		c-1.4,3.1-2.9,7-1.9,7.8c1.8,1.4,6.7-5.2,6.8-5.3c0.9-1.2,3.5-9.2,5.6-8.2c2.1,0.9-5.3,11.4-2.5,13.5c0.6,0.4,2.8-0.3,4.2-1.8
		c0.9-1,0.6-3.1,3.6-10.2c3-7.1,5.6-16,7.7-15.3c2,0.7,0.4,5.2-0.4,6.9c-3.4,8-9.4,21.1-6.6,20.1c2.8-1,4.3-1.1,7-4.3
		c2.8-3.2,2.6-8.5,4.5-8.4c1.8,0.1,1.5,1.8,1.1,3.1c1.8-2.1,8.6-6.4,10.2-2.1c1.9,5.1-9.7,12.5-6.8,12.1c2.8-0.4,7.4-3.3,9.3-5.9
		l5.4-48.3c0,0-5.4,4.5-39.8,4.5c-34.4,0-39.2-4.4-39.2-4.4l4.6,44c2.4-6.9,8.2-20.8,17.3-20.4c4.1,0.2,9.6,8.2,4.9,8.4
		c-2,0.1-2.2-4-4.6-4.6c-1.7-0.4-4.1,1-5.6,2.5c-3.1,3-9.7,14.8-8.8,20.7c1.1,7.5,10.4-2.6,11.9-5.6c1.1-2.1,1.9-8.4,4.3-7.7
		c2.4,0.7-0.2,7.1-2,12.9c-2,6.4-3,13.2-5.5,12.4c-2.5-0.8,1.6-9.1,1.4-10.5c-2.3,2.1-6.6,7.6-12.1,4.9l2.8,27.3c0,0,7.5,6,30.3,6
		s30.5-5.9,30.5-5.9l3.5-31.7C89.9,118.9,80.7,123.9,80.1,118.3"/>
</g>
</svg>
