<?xml version="1.0" encoding="utf-8"?>
<!-- Generator: Adobe Illustrator 22.0.0, SVG Export Plug-In . SVG Version: 6.00 Build 0)  -->
<svg version="1.1" id="Laag_1" xmlns="http://www.w3.org/2000/svg" xmlns:xlink="http://www.w3.org/1999/xlink" x="0px" y="0px"
	 viewBox="0 0 82 59.5" style="enable-background:new 0 0 82 59.5;" xml:space="preserve">
<style type="text/css">
	.st0{fill:#CF649A;}
</style>
<path class="st0" d="M69.2,34.1c-2.6,0-4.9,0.6-6.7,1.6c-0.7-1.4-1.4-2.6-1.5-3.5c-0.1-1.1-0.3-1.7-0.1-3c0.2-1.3,0.9-3,0.9-3.2
	c0-0.1-0.2-0.7-1.7-0.7c-1.5,0-2.8,0.3-3,0.6c-0.1,0.4-0.4,1.3-0.6,2.2c-0.2,1.4-3,6.2-4.6,8.7c-0.5-1-1-1.9-1.1-2.6
	c-0.1-1.1-0.3-1.7-0.1-3c0.2-1.3,0.9-3,0.9-3.2c0-0.1-0.2-0.7-1.7-0.7c-1.5,0-2.8,0.3-3,0.6c-0.1,0.4-0.3,1.3-0.6,2.2
	c-0.3,0.9-3.9,8.9-4.9,11.1c-0.5,1.1-0.9,1.9-1.2,2.6c-0.3,0.5,0,0,0,0.1c-0.2,0.5-0.4,0.7-0.4,0.7l0,0c-0.2,0.3-0.4,0.7-0.5,0.7
	s-0.2-1,0-2.3c0.5-2.8,1.8-7.2,1.8-7.3c0-0.1,0.2-0.9-0.9-1.3c-1.1-0.4-1.5,0.2-1.5,0.2c-0.1,0-0.2,0.2-0.2,0.2s1.2-4.9-2.2-4.9
	c-2.1,0-5.1,2.3-6.6,4.5c-1,0.5-2.9,1.6-5,2.8c-0.9,0.4-1.6,0.9-2.4,1.3l-0.2-0.2c-4.1-4.5-11.8-7.6-11.5-13.5
	c0.1-2.1,0.9-7.9,14.8-14.8C36.8,4.6,46,6.1,47.6,9.7c2.2,4.9-4.9,14.2-16.7,15.4c-4.5,0.5-6.9-1.3-7.4-1.9c-0.6-0.6-0.7-0.7-1-0.5
	c-0.4,0.2-0.1,0.9,0,1.2c0.3,1,1.8,2.6,4.3,3.4c2.1,0.7,7.4,1.1,13.8-1.4c7.1-2.8,12.8-10.5,11.2-16.9C50,2.3,39.2,0.2,28.8,3.8
	c-6.2,2.2-12.8,5.6-17.6,10c-5.6,5.3-6.6,9.9-6.2,11.8C6.5,32.5,15.9,37,19.7,40.3c-0.2,0.1-0.3,0.2-0.5,0.3c-1.9,1-9,4.7-10.9,8.7
	c-2,4.5,0.3,7.8,1.9,8.2c4.9,1.4,9.8-1.1,12.6-5.1c2.7-4,2.3-9.2,1.2-11.6v-0.1l1.5-0.9c1-0.5,1.9-1.1,2.8-1.5
	c-0.4,1.3-0.9,2.8-1,4.9c-0.2,2.6,0.9,5.9,2.2,7.2c0.6,0.5,1.4,0.5,1.8,0.5c1.6,0,2.3-1.3,3.1-2.9c1-1.9,1.9-4.1,1.9-4.1
	s-1.1,6.1,1.9,6.1c1.1,0,2.2-1.4,2.7-2.1l0,0c0,0,0,0,0.1-0.1c0.1-0.1,0.1-0.2,0.2-0.3l0,0c0.4-0.7,1.4-2.4,2.9-5.3
	c1.9-3.7,3.7-8.3,3.7-8.3s0.2,1.2,0.7,3c0.3,1.1,1.1,2.3,1.6,3.5c-0.4,0.6-0.7,1-0.7,1l0,0c-0.3,0.4-0.7,1-1.2,1.5
	c-1.5,1.8-3.3,3.8-3.5,4.4c-0.3,0.6-0.2,1.2,0.3,1.6c0.4,0.3,1.1,0.3,1.8,0.3c1.4-0.1,2.2-0.4,2.8-0.6c0.7-0.2,1.6-0.6,2.3-1.3
	c1.5-1.1,2.3-2.6,2.2-4.7c0-1.2-0.4-2.2-0.9-3.3c0.1-0.2,0.2-0.4,0.4-0.5c2.3-3.4,4-7,4-7s0.2,1.2,0.7,3c0.3,1,0.9,2,1.3,3
	c-2.1,1.8-3.5,3.8-3.9,5.1c-0.9,2.4-0.2,3.6,1.1,3.8c0.5,0.1,1.4-0.1,2-0.4c0.7-0.2,1.7-0.6,2.6-1.3c1.5-1.1,2.9-2.6,2.8-4.6
	c0-1-0.3-1.8-0.6-2.8c1.8-0.7,4.3-1.2,7.2-0.9c6.5,0.7,7.8,4.8,7.6,6.5c-0.2,1.7-1.6,2.7-2,2.9c-0.4,0.3-0.6,0.4-0.5,0.5
	c0.1,0.3,0.2,0.3,0.6,0.2c0.5-0.1,3.4-1.4,3.5-4.5C79.7,38.4,75.9,34,69.2,34.1L69.2,34.1z M19.3,50.9c-2.1,2.3-5.1,3.2-6.4,2.4
	c-1.4-0.9-0.9-4.3,1.8-6.7c1.6-1.5,3.7-2.9,5-3.7c0.3-0.2,0.7-0.4,1.3-0.9c0.1-0.1,0.1-0.1,0.1-0.1c0.1-0.1,0.2-0.1,0.3-0.2
	C22.4,45.3,21.5,48.5,19.3,50.9L19.3,50.9z M34.9,40.3c-0.7,1.8-2.3,6.5-3.3,6.3c-0.9-0.2-1.3-3.7-0.2-7.2c0.5-1.8,1.8-3.8,2.6-4.7
	c1.2-1.3,2.4-1.7,2.8-1.2C37.1,34.1,35.3,39.1,34.9,40.3z M47.8,46.5c-0.3,0.2-0.6,0.3-0.7,0.2c-0.1-0.1,0.1-0.3,0.1-0.3
	s1.6-1.7,2.2-2.6c0.3-0.4,0.9-1,1.3-1.6v0.2C50.6,44.5,48.7,45.8,47.8,46.5L47.8,46.5z M57.8,44.1c-0.2-0.2-0.2-0.7,0.5-2.4
	c0.3-0.6,1-1.8,2.2-2.9c0.1,0.4,0.2,0.9,0.2,1.3C60.8,42.8,58.8,43.8,57.8,44.1z"/>
</svg>
