<?xml version="1.0" encoding="utf-8"?>
<!-- Generator: Adobe Illustrator 22.0.0, SVG Export Plug-In . SVG Version: 6.00 Build 0)  -->
<svg version="1.1" id="Laag_1" xmlns="http://www.w3.org/2000/svg" xmlns:xlink="http://www.w3.org/1999/xlink" x="0px" y="0px"
	 viewBox="0 0 76.8 74.8" style="enable-background:new 0 0 76.8 74.8;" xml:space="preserve">
<style type="text/css">
	.st0{fill:url(#SVGID_1_);}
	.st1{fill:url(#SVGID_2_);}
	.st2{fill:#FFFFFF;}
</style>
<g>
	
		<linearGradient id="SVGID_1_" gradientUnits="userSpaceOnUse" x1="-760.7418" y1="316.5076" x2="-759.3884" y2="324.183" gradientTransform="matrix(-9.7656 0 0 9.7656 -7384.4722 -3090.3904)">
		<stop  offset="0" style="stop-color:#FAAE42"/>
		<stop  offset="1" style="stop-color:#EF3E31"/>
	</linearGradient>
	<path class="st0" d="M18.6,3h38.8c1.9,0,3.7,0.3,5.5,0.9c2.6,0.9,4.9,2.6,6.6,4.7c1.8,2.1,3,4.8,3.4,7.5c0.2,1,0.2,2,0.2,3V57
		c0,1.2-0.1,2.4-0.3,3.6c-0.5,2.7-1.8,5.2-3.7,7.3c-1.8,2-4.2,3.6-6.8,4.4C60.6,72.8,59,73,57.3,73c-0.7,0-38.8,0-39.4,0
		c-2.8-0.1-5.5-1-7.9-2.6c-2.3-1.5-4.1-3.7-5.3-6.1c-1-2.1-1.6-4.5-1.6-6.8V18.6c-0.1-2.3,0.4-4.6,1.4-6.7c1.2-2.5,3-4.6,5.3-6.1
		c2.3-1.6,5.1-2.5,7.8-2.7C18,3,18.3,3,18.6,3z"/>
	
		<linearGradient id="SVGID_2_" gradientUnits="userSpaceOnUse" x1="766.9233" y1="1736.6167" x2="765.9321" y2="1730.9957" gradientTransform="matrix(9.7656 0 0 -9.7656 -7450.7812 16963.2812)">
		<stop  offset="0" style="stop-color:#E39F3A"/>
		<stop  offset="1" style="stop-color:#D33929"/>
	</linearGradient>
	<path class="st1" d="M62,60.2c-0.2-0.4-0.5-0.8-0.8-1.1c-0.7-0.8-1.5-1.5-2.4-2.1c-1.1-0.7-2.4-1.2-3.7-1.3
		c-0.9-0.1-1.9,0.1-2.7,0.4c-0.9,0.3-1.7,0.7-2.5,1.2c-1,0.5-1.9,1-2.9,1.4c-1.2,0.5-2.5,0.9-3.7,1.1c-1.6,0.3-3.3,0.4-4.9,0.4
		c-2.9-0.1-5.8-0.5-8.6-1.3c-2.5-0.7-4.8-1.7-7-3c-1.9-1.1-3.7-2.4-5.4-3.9c-1.4-1.2-2.7-2.5-3.9-3.9c-0.8-1-1.6-2-2.4-3
		c-0.3-0.4-0.6-0.8-0.8-1.3L3,36.1V18.5C3,9.9,9.9,3,18.5,3h13.8l10.2,10.4c23.1,15.7,15.6,33,15.6,33S64.7,53.8,62,60.2z"/>
	<path class="st2" d="M42.6,13.4c23.1,15.7,15.6,33,15.6,33s6.6,7.4,3.9,13.9c0,0-2.7-4.5-7.2-4.5c-4.4,0-6.9,4.5-15.7,4.5
		c-19.6,0-28.9-16.4-28.9-16.4c17.7,11.6,29.7,3.4,29.7,3.4c-8-4.6-24.9-26.7-24.9-26.7c14.7,12.5,21.1,15.9,21.1,15.9
		c-3.8-3.1-14.5-18.5-14.5-18.5c8.5,8.6,25.5,20.7,25.5,20.7C52,25.3,42.6,13.4,42.6,13.4z"/>
</g>
</svg>
