<?xml version="1.0" encoding="utf-8"?>
<!-- Generator: Adobe Illustrator 22.0.0, SVG Export Plug-In . SVG Version: 6.00 Build 0)  -->
<svg version="1.1" id="Laag_1" xmlns="http://www.w3.org/2000/svg" xmlns:xlink="http://www.w3.org/1999/xlink" x="0px" y="0px"
	 viewBox="0 0 70 70" style="enable-background:new 0 0 70 70;" xml:space="preserve">
<style type="text/css">
	.st0{fill:#F7DF1E;}
</style>
<rect x="-0.5" y="-0.5" class="st0" width="70" height="70"/>
<path d="M46.5,54.2c1.4,2.3,3.2,4,6.5,4c2.7,0,4.5-1.4,4.5-3.2c0-2.3-1.8-3.1-4.8-4.4L51,49.9c-4.7-2-7.9-4.6-7.9-9.9
	c0-4.9,3.8-8.7,9.6-8.7c4.2,0,7.2,1.5,9.4,5.3L57,39.8c-1.1-2-2.3-2.8-4.2-2.8c-1.9,0-3.1,1.2-3.1,2.8c0,2,1.2,2.8,4,4l1.6,0.7
	c5.6,2.4,8.7,4.8,8.7,10.3c0,5.9-4.7,9.2-10.9,9.2c-6.1,0-10.1-2.9-12-6.7L46.5,54.2z M23.3,54.8c1,1.8,2,3.4,4.2,3.4
	c2.2,0,3.5-0.8,3.5-4.1V31.6h6.6v22.5c0,6.8-4,9.9-9.8,9.9c-5.3,0-8.3-2.7-9.9-6L23.3,54.8z"/>
</svg>
